<mxfile host="app.diagrams.net" modified="2020-05-04T19:27:40.257Z" agent="5.0 (Macintosh; Intel Mac OS X 10_15_4) AppleWebKit/605.1.15 (KHTML, like Gecko) Version/13.1 Safari/605.1.15" etag="vKo0Bo89YgGF7UkFxGp5" version="13.0.4" type="github">
  <diagram id="GnVgiSFdVF10wmryirrv" name="Page-1">
    <mxGraphModel dx="1982" dy="2129" grid="1" gridSize="10" guides="1" tooltips="1" connect="1" arrows="1" fold="1" page="1" pageScale="1" pageWidth="850" pageHeight="1100" math="0" shadow="0">
      <root>
        <mxCell id="0" />
        <mxCell id="1" parent="0" />
        <mxCell id="5fEO6STA1TvdQxu0LVJK-40" value="Message Processing" style="rounded=0;whiteSpace=wrap;html=1;dashed=1;align=right;fontStyle=1;verticalAlign=top;fillColor=#d5e8d4;strokeColor=#82b366;" parent="1" vertex="1">
          <mxGeometry x="20" y="30" width="350" height="380" as="geometry" />
        </mxCell>
        <mxCell id="5fEO6STA1TvdQxu0LVJK-2" value="EnvironmentAccessor" style="rounded=0;whiteSpace=wrap;html=1;dashed=1;" parent="1" vertex="1">
          <mxGeometry x="170" y="-220" width="120" height="60" as="geometry" />
        </mxCell>
        <mxCell id="5fEO6STA1TvdQxu0LVJK-35" value="uses" style="edgeStyle=orthogonalEdgeStyle;rounded=0;orthogonalLoop=1;jettySize=auto;html=1;exitX=0.5;exitY=0;exitDx=0;exitDy=0;entryX=0;entryY=0.5;entryDx=0;entryDy=0;dashed=1;" parent="1" source="5fEO6STA1TvdQxu0LVJK-3" target="5fEO6STA1TvdQxu0LVJK-1" edge="1">
          <mxGeometry relative="1" as="geometry" />
        </mxCell>
        <mxCell id="5fEO6STA1TvdQxu0LVJK-39" value="builds" style="edgeStyle=orthogonalEdgeStyle;rounded=0;orthogonalLoop=1;jettySize=auto;html=1;exitX=0.5;exitY=1;exitDx=0;exitDy=0;entryX=-0.002;entryY=0.141;entryDx=0;entryDy=0;entryPerimeter=0;dashed=1;" parent="1" source="5fEO6STA1TvdQxu0LVJK-3" target="5fEO6STA1TvdQxu0LVJK-34" edge="1">
          <mxGeometry relative="1" as="geometry" />
        </mxCell>
        <mxCell id="5fEO6STA1TvdQxu0LVJK-3" value="ConfigurationBuilder" style="rounded=0;whiteSpace=wrap;html=1;" parent="1" vertex="1">
          <mxGeometry x="390" y="50" width="120" height="60" as="geometry" />
        </mxCell>
        <mxCell id="5fEO6STA1TvdQxu0LVJK-30" value="uses" style="edgeStyle=orthogonalEdgeStyle;rounded=0;orthogonalLoop=1;jettySize=auto;html=1;exitX=1;exitY=0.25;exitDx=0;exitDy=0;entryX=0;entryY=0.5;entryDx=0;entryDy=0;dashed=1;" parent="1" source="5fEO6STA1TvdQxu0LVJK-11" target="5fEO6STA1TvdQxu0LVJK-3" edge="1">
          <mxGeometry relative="1" as="geometry" />
        </mxCell>
        <mxCell id="5fEO6STA1TvdQxu0LVJK-11" value="SertaCommandBase" style="rounded=0;whiteSpace=wrap;html=1;" parent="1" vertex="1">
          <mxGeometry x="150" y="70" width="120" height="60" as="geometry" />
        </mxCell>
        <mxCell id="5fEO6STA1TvdQxu0LVJK-28" value="extends" style="edgeStyle=orthogonalEdgeStyle;rounded=0;orthogonalLoop=1;jettySize=auto;html=1;exitX=0.5;exitY=0;exitDx=0;exitDy=0;entryX=0.5;entryY=1;entryDx=0;entryDy=0;" parent="1" source="5fEO6STA1TvdQxu0LVJK-25" target="5fEO6STA1TvdQxu0LVJK-11" edge="1">
          <mxGeometry relative="1" as="geometry" />
        </mxCell>
        <mxCell id="5fEO6STA1TvdQxu0LVJK-25" value="SertaUpCommand" style="rounded=0;whiteSpace=wrap;html=1;" parent="1" vertex="1">
          <mxGeometry x="60" y="210" width="120" height="60" as="geometry" />
        </mxCell>
        <mxCell id="5fEO6STA1TvdQxu0LVJK-29" value="extends" style="edgeStyle=orthogonalEdgeStyle;rounded=0;orthogonalLoop=1;jettySize=auto;html=1;exitX=0.5;exitY=0;exitDx=0;exitDy=0;entryX=0.5;entryY=1;entryDx=0;entryDy=0;" parent="1" source="5fEO6STA1TvdQxu0LVJK-27" target="5fEO6STA1TvdQxu0LVJK-11" edge="1">
          <mxGeometry relative="1" as="geometry">
            <mxPoint x="420" y="150" as="targetPoint" />
          </mxGeometry>
        </mxCell>
        <mxCell id="5fEO6STA1TvdQxu0LVJK-27" value="SertaDownCommand" style="rounded=0;whiteSpace=wrap;html=1;" parent="1" vertex="1">
          <mxGeometry x="200" y="210" width="120" height="60" as="geometry" />
        </mxCell>
        <mxCell id="5fEO6STA1TvdQxu0LVJK-32" value="processes" style="edgeStyle=orthogonalEdgeStyle;rounded=0;orthogonalLoop=1;jettySize=auto;html=1;entryX=0.5;entryY=1;entryDx=0;entryDy=0;" parent="1" source="5fEO6STA1TvdQxu0LVJK-31" target="5fEO6STA1TvdQxu0LVJK-27" edge="1">
          <mxGeometry relative="1" as="geometry">
            <Array as="points">
              <mxPoint x="260" y="310" />
              <mxPoint x="260" y="310" />
            </Array>
          </mxGeometry>
        </mxCell>
        <mxCell id="5fEO6STA1TvdQxu0LVJK-31" value="Bot" style="rounded=0;whiteSpace=wrap;html=1;" parent="1" vertex="1">
          <mxGeometry x="200" y="340" width="120" height="60" as="geometry" />
        </mxCell>
        <mxCell id="5fEO6STA1TvdQxu0LVJK-37" value="" style="group;verticalAlign=top;" parent="1" vertex="1" connectable="0">
          <mxGeometry x="555" y="-240" width="595" height="390" as="geometry" />
        </mxCell>
        <mxCell id="5fEO6STA1TvdQxu0LVJK-36" value="&lt;b&gt;Settings Provisioning&lt;/b&gt;" style="rounded=0;whiteSpace=wrap;html=1;align=right;fillColor=#e1d5e7;strokeColor=#9673a6;verticalAlign=top;" parent="5fEO6STA1TvdQxu0LVJK-37" vertex="1">
          <mxGeometry width="595" height="390" as="geometry" />
        </mxCell>
        <mxCell id="5fEO6STA1TvdQxu0LVJK-1" value="SettingResolver" style="rounded=0;whiteSpace=wrap;html=1;" parent="5fEO6STA1TvdQxu0LVJK-37" vertex="1">
          <mxGeometry x="235" y="30" width="120" height="60" as="geometry" />
        </mxCell>
        <mxCell id="5fEO6STA1TvdQxu0LVJK-5" value="EnvironmentDao" style="rounded=0;whiteSpace=wrap;html=1;" parent="5fEO6STA1TvdQxu0LVJK-37" vertex="1">
          <mxGeometry x="125" y="160" width="120" height="60" as="geometry" />
        </mxCell>
        <mxCell id="5fEO6STA1TvdQxu0LVJK-13" value="uses" style="edgeStyle=orthogonalEdgeStyle;rounded=0;orthogonalLoop=1;jettySize=auto;html=1;exitX=0.5;exitY=1;exitDx=0;exitDy=0;entryX=0.5;entryY=0;entryDx=0;entryDy=0;" parent="5fEO6STA1TvdQxu0LVJK-37" source="5fEO6STA1TvdQxu0LVJK-1" target="5fEO6STA1TvdQxu0LVJK-5" edge="1">
          <mxGeometry relative="1" as="geometry" />
        </mxCell>
        <mxCell id="5fEO6STA1TvdQxu0LVJK-14" value="AppConfigurationDao" style="rounded=0;whiteSpace=wrap;html=1;" parent="5fEO6STA1TvdQxu0LVJK-37" vertex="1">
          <mxGeometry x="325" y="160" width="120" height="60" as="geometry" />
        </mxCell>
        <mxCell id="5fEO6STA1TvdQxu0LVJK-15" value="uses" style="edgeStyle=orthogonalEdgeStyle;rounded=0;orthogonalLoop=1;jettySize=auto;html=1;exitX=0.5;exitY=1;exitDx=0;exitDy=0;entryX=0.5;entryY=0;entryDx=0;entryDy=0;" parent="5fEO6STA1TvdQxu0LVJK-37" source="5fEO6STA1TvdQxu0LVJK-1" target="5fEO6STA1TvdQxu0LVJK-14" edge="1">
          <mxGeometry relative="1" as="geometry" />
        </mxCell>
        <mxCell id="5fEO6STA1TvdQxu0LVJK-16" value="AppConfigurationClient" style="rounded=0;whiteSpace=wrap;html=1;" parent="5fEO6STA1TvdQxu0LVJK-37" vertex="1">
          <mxGeometry x="185" y="290" width="150" height="60" as="geometry" />
        </mxCell>
        <mxCell id="5fEO6STA1TvdQxu0LVJK-18" value="uses" style="edgeStyle=orthogonalEdgeStyle;rounded=0;orthogonalLoop=1;jettySize=auto;html=1;" parent="5fEO6STA1TvdQxu0LVJK-37" source="5fEO6STA1TvdQxu0LVJK-14" target="5fEO6STA1TvdQxu0LVJK-16" edge="1">
          <mxGeometry relative="1" as="geometry">
            <Array as="points">
              <mxPoint x="385" y="250" />
              <mxPoint x="260" y="250" />
            </Array>
          </mxGeometry>
        </mxCell>
        <mxCell id="5fEO6STA1TvdQxu0LVJK-17" value="KeyValueClient" style="rounded=0;whiteSpace=wrap;html=1;" parent="5fEO6STA1TvdQxu0LVJK-37" vertex="1">
          <mxGeometry x="375" y="280" width="150" height="60" as="geometry" />
        </mxCell>
        <mxCell id="5fEO6STA1TvdQxu0LVJK-19" value="uses" style="edgeStyle=orthogonalEdgeStyle;rounded=0;orthogonalLoop=1;jettySize=auto;html=1;" parent="5fEO6STA1TvdQxu0LVJK-37" source="5fEO6STA1TvdQxu0LVJK-14" target="5fEO6STA1TvdQxu0LVJK-17" edge="1">
          <mxGeometry relative="1" as="geometry" />
        </mxCell>
        <mxCell id="5fEO6STA1TvdQxu0LVJK-34" value="&lt;b&gt;Full Runtime Configuration&lt;br&gt;&lt;/b&gt;" style="rounded=0;whiteSpace=wrap;html=1;align=right;fillColor=#e1d5e7;strokeColor=#9673a6;verticalAlign=top;" parent="1" vertex="1">
          <mxGeometry x="554" y="220" width="490" height="290" as="geometry" />
        </mxCell>
        <mxCell id="5fEO6STA1TvdQxu0LVJK-4" value="SertaConfiguration" style="rounded=0;whiteSpace=wrap;html=1;" parent="1" vertex="1">
          <mxGeometry x="724" y="260" width="120" height="60" as="geometry" />
        </mxCell>
        <mxCell id="5fEO6STA1TvdQxu0LVJK-6" value="MessageOfTheDayProvider" style="rounded=0;whiteSpace=wrap;html=1;" parent="1" vertex="1">
          <mxGeometry x="814" y="400" width="190" height="60" as="geometry" />
        </mxCell>
        <mxCell id="5fEO6STA1TvdQxu0LVJK-9" style="edgeStyle=orthogonalEdgeStyle;rounded=0;orthogonalLoop=1;jettySize=auto;html=1;exitX=0.5;exitY=1;exitDx=0;exitDy=0;entryX=0.5;entryY=0;entryDx=0;entryDy=0;startArrow=diamond;startFill=0;" parent="1" source="5fEO6STA1TvdQxu0LVJK-4" target="5fEO6STA1TvdQxu0LVJK-6" edge="1">
          <mxGeometry relative="1" as="geometry" />
        </mxCell>
        <mxCell id="5fEO6STA1TvdQxu0LVJK-10" value="has a" style="text;html=1;align=center;verticalAlign=middle;resizable=0;points=[];" parent="5fEO6STA1TvdQxu0LVJK-9" vertex="1" connectable="0">
          <mxGeometry x="0.3333" y="2" relative="1" as="geometry">
            <mxPoint x="-30.8" y="-8" as="offset" />
          </mxGeometry>
        </mxCell>
        <mxCell id="5fEO6STA1TvdQxu0LVJK-7" value="GameLevelInformation" style="rounded=0;whiteSpace=wrap;html=1;" parent="1" vertex="1">
          <mxGeometry x="604" y="400" width="190" height="60" as="geometry" />
        </mxCell>
        <mxCell id="5fEO6STA1TvdQxu0LVJK-8" value="has a" style="edgeStyle=orthogonalEdgeStyle;rounded=0;orthogonalLoop=1;jettySize=auto;html=1;startArrow=diamond;startFill=0;fillColor=#e1d5e7;strokeColor=#000000;labelBackgroundColor=none;" parent="1" source="5fEO6STA1TvdQxu0LVJK-4" target="5fEO6STA1TvdQxu0LVJK-7" edge="1">
          <mxGeometry x="0.0182" y="-10" relative="1" as="geometry">
            <mxPoint as="offset" />
          </mxGeometry>
        </mxCell>
        <mxCell id="5fEO6STA1TvdQxu0LVJK-20" style="edgeStyle=orthogonalEdgeStyle;rounded=0;orthogonalLoop=1;jettySize=auto;html=1;exitX=1;exitY=0.5;exitDx=0;exitDy=0;entryX=-0.025;entryY=0.617;entryDx=0;entryDy=0;dashed=1;entryPerimeter=0;" parent="1" source="5fEO6STA1TvdQxu0LVJK-11" target="5fEO6STA1TvdQxu0LVJK-4" edge="1">
          <mxGeometry relative="1" as="geometry">
            <Array as="points">
              <mxPoint x="360" y="100" />
              <mxPoint x="360" y="297" />
            </Array>
          </mxGeometry>
        </mxCell>
        <mxCell id="5fEO6STA1TvdQxu0LVJK-21" value="has a" style="text;html=1;align=center;verticalAlign=middle;resizable=0;points=[];" parent="5fEO6STA1TvdQxu0LVJK-20" vertex="1" connectable="0">
          <mxGeometry x="0.31" relative="1" as="geometry">
            <mxPoint as="offset" />
          </mxGeometry>
        </mxCell>
      </root>
    </mxGraphModel>
  </diagram>
</mxfile>
